<svg width="30" height="30" viewBox="0 0 30 30" fill="none" xmlns="http://www.w3.org/2000/svg">
<g clip-path="url(#clip0_1920_233)">
<path d="M21.4625 30C21.298 30.0009 21.1349 29.9694 20.9826 29.9072C20.8303 29.845 20.6918 29.7533 20.575 29.6375L10.3625 19.425C9.78044 18.8444 9.31865 18.1547 9.00357 17.3954C8.68849 16.6361 8.52631 15.8221 8.52631 15C8.52631 14.1779 8.68849 13.3639 9.00357 12.6046C9.31865 11.8453 9.78044 11.1556 10.3625 10.575L20.575 0.362488C20.6915 0.245939 20.8299 0.153488 20.9822 0.090413C21.1344 0.0273375 21.2977 -0.00512695 21.4625 -0.00512695C21.6273 -0.00512695 21.7905 0.0273375 21.9428 0.090413C22.0951 0.153488 22.2334 0.245939 22.35 0.362488C22.4665 0.479036 22.559 0.617399 22.6221 0.769676C22.6851 0.921954 22.7176 1.08516 22.7176 1.24999C22.7176 1.41481 22.6851 1.57802 22.6221 1.7303C22.559 1.88258 22.4665 2.02094 22.35 2.13749L12.1375 12.35C11.4352 13.0531 11.0408 14.0062 11.0408 15C11.0408 15.9937 11.4352 16.9469 12.1375 17.65L22.35 27.8625C22.4671 27.9787 22.5601 28.1169 22.6236 28.2693C22.6871 28.4216 22.7197 28.585 22.7197 28.75C22.7197 28.915 22.6871 29.0784 22.6236 29.2307C22.5601 29.383 22.4671 29.5213 22.35 29.6375C22.2332 29.7533 22.0947 29.845 21.9424 29.9072C21.7901 29.9694 21.627 30.0009 21.4625 30Z" fill="black"/>
</g>
<defs>
<clipPath id="clip0_1920_233">
<rect width="30" height="30" fill="white"/>
</clipPath>
</defs>
</svg>
