<svg width="30" height="30" viewBox="0 0 30 30" fill="none" xmlns="http://www.w3.org/2000/svg">
<g clip-path="url(#clip0_1920_232)">
<path d="M8.74998 30C8.58548 30.0009 8.4224 29.9694 8.2701 29.9072C8.1178 29.845 7.97928 29.7533 7.86248 29.6375C7.74532 29.5213 7.65233 29.383 7.58887 29.2307C7.52541 29.0784 7.49274 28.915 7.49274 28.75C7.49274 28.585 7.52541 28.4216 7.58887 28.2693C7.65233 28.1169 7.74532 27.9787 7.86248 27.8625L18.075 17.65C18.7772 16.9469 19.1717 15.9937 19.1717 15C19.1717 14.0062 18.7772 13.0531 18.075 12.35L7.86248 2.13749C7.62711 1.90211 7.49487 1.58286 7.49487 1.24999C7.49487 0.917111 7.62711 0.597867 7.86248 0.362488C8.09786 0.127108 8.41711 -0.00512695 8.74998 -0.00512695C9.08286 -0.00512695 9.40211 0.127108 9.63748 0.362488L19.85 10.575C20.432 11.1556 20.8938 11.8453 21.2089 12.6046C21.524 13.3639 21.6862 14.1779 21.6862 15C21.6862 15.8221 21.524 16.6361 21.2089 17.3954C20.8938 18.1547 20.432 18.8444 19.85 19.425L9.63748 29.6375C9.52068 29.7533 9.38216 29.845 9.22987 29.9072C9.07757 29.9694 8.91449 30.0009 8.74998 30Z" fill="black"/>
</g>
<defs>
<clipPath id="clip0_1920_232">
<rect width="30" height="30" fill="white"/>
</clipPath>
</defs>
</svg>
