<svg width="37" height="31" viewBox="0 0 37 31" fill="none" xmlns="http://www.w3.org/2000/svg">
<g clip-path="url(#clip0_1914_186)">
<path d="M0.773955 0C0.770026 0.0991583 0.744209 0.278339 0.766098 0.284718C1.26785 0.432585 1.76848 0.632641 2.28202 0.68193C4.4675 0.891265 6.65691 1.06001 8.84576 1.23281C10.5637 1.3685 12.3288 1.27746 13.9912 1.66424C16.4663 2.23947 18.8062 3.28556 20.2031 5.68855C20.7413 6.61461 21.0236 7.69607 21.5276 8.64764C21.7123 8.99557 22.1893 9.37364 22.5519 9.39452C24.913 9.53137 27.2793 9.63343 29.6426 9.61487C30.4778 9.60849 31.3376 9.30812 32.1363 9.00369C33.1341 8.62329 34.0641 8.72071 35.0194 9.08719C35.4352 9.24665 35.8826 9.32146 36.2889 9.50006C36.5112 9.59748 36.6773 9.83174 36.8445 9.98193C35.9213 10.4719 35.0749 10.9335 34.2168 11.3719C33.6056 11.6844 32.9781 11.9628 32.3596 12.2597C30.9245 12.9486 29.5321 13.765 28.0442 14.2979C26.0821 15.0013 24.867 16.6093 23.4128 17.9395C22.278 18.9775 21.1606 20.0358 20.0302 21.079C19.1379 21.9024 18.2864 22.7861 17.3228 23.5098C16.7391 23.9482 15.9657 24.1076 15.2978 24.4364C14.2898 24.9328 13.3105 25.4924 12.2985 25.98C10.5699 26.8139 8.82444 27.6106 7.08795 28.4283C5.6231 29.1183 4.16499 29.824 2.69509 30.5025C2.35442 30.6596 1.97838 30.7362 1.49852 30.6932C3.40731 28.0432 5.16793 25.2598 7.26642 22.7815C9.36547 20.3025 11.8018 18.128 13.8173 16.0961C13.444 15.5313 13.0854 15.039 12.7851 14.5107C12.6544 14.2805 12.5354 13.9483 12.5966 13.714C12.8312 12.8146 13.1628 11.9419 13.4003 11.0431C13.4401 10.8923 13.2336 10.5995 13.0686 10.4742C10.791 8.74854 8.49948 7.04198 6.21465 5.32671C4.97767 4.39834 3.74686 3.46126 2.51213 2.52941C1.67587 1.89792 0.837376 1.26934 0 0.63902V0H0.773955Z" fill="white"/>
</g>
<defs>
<clipPath id="clip0_1914_186">
<rect width="37" height="31" fill="white"/>
</clipPath>
</defs>
</svg>
